<svg class="rich-terminal" viewBox="0 0 1238 611.1999999999999" xmlns="http://www.w3.org/2000/svg">
    <!-- Generated with Rich https://www.textualize.io -->
    <style>

    @font-face {
        font-family: "Fira Code";
        src: local("FiraCode-Regular"),
                url("https://cdnjs.cloudflare.com/ajax/libs/firacode/6.2.0/woff2/FiraCode-Regular.woff2") format("woff2"),
                url("https://cdnjs.cloudflare.com/ajax/libs/firacode/6.2.0/woff/FiraCode-Regular.woff") format("woff");
        font-style: normal;
        font-weight: 400;
    }
    @font-face {
        font-family: "Fira Code";
        src: local("FiraCode-Bold"),
                url("https://cdnjs.cloudflare.com/ajax/libs/firacode/6.2.0/woff2/FiraCode-Bold.woff2") format("woff2"),
                url("https://cdnjs.cloudflare.com/ajax/libs/firacode/6.2.0/woff/FiraCode-Bold.woff") format("woff");
        font-style: bold;
        font-weight: 700;
    }

    .terminal-2752597283-matrix {
        font-family: Fira Code, monospace;
        font-size: 20px;
        line-height: 24.4px;
        font-variant-east-asian: full-width;
    }

    .terminal-2752597283-title {
        font-size: 18px;
        font-weight: bold;
        font-family: arial;
    }

    .terminal-2752597283-r1 { fill: #c5c8c6 }
.terminal-2752597283-r2 { fill: #e0e0e0 }
.terminal-2752597283-r3 { fill: #e0e0e0;font-weight: bold }
.terminal-2752597283-r4 { fill: #008000 }
.terminal-2752597283-r5 { fill: #999999 }
.terminal-2752597283-r6 { fill: #58d1eb;font-weight: bold }
.terminal-2752597283-r7 { fill: #98e024 }
.terminal-2752597283-r8 { fill: #f4005f }
.terminal-2752597283-r9 { fill: #fd971f }
.terminal-2752597283-r10 { fill: #98e024;font-weight: bold }
.terminal-2752597283-r11 { fill: #a1a1a1;font-weight: bold }
.terminal-2752597283-r12 { fill: #a1a1a1 }
.terminal-2752597283-r13 { fill: #b47021 }
.terminal-2752597283-r14 { fill: #495259 }
.terminal-2752597283-r15 { fill: #ffa62b;font-weight: bold }
    </style>

    <defs>
    <clipPath id="terminal-2752597283-clip-terminal">
      <rect x="0" y="0" width="1219.0" height="560.1999999999999" />
    </clipPath>
    <clipPath id="terminal-2752597283-line-0">
    <rect x="0" y="1.5" width="1220" height="24.65"/>
            </clipPath>
<clipPath id="terminal-2752597283-line-1">
    <rect x="0" y="25.9" width="1220" height="24.65"/>
            </clipPath>
<clipPath id="terminal-2752597283-line-2">
    <rect x="0" y="50.3" width="1220" height="24.65"/>
            </clipPath>
<clipPath id="terminal-2752597283-line-3">
    <rect x="0" y="74.7" width="1220" height="24.65"/>
            </clipPath>
<clipPath id="terminal-2752597283-line-4">
    <rect x="0" y="99.1" width="1220" height="24.65"/>
            </clipPath>
<clipPath id="terminal-2752597283-line-5">
    <rect x="0" y="123.5" width="1220" height="24.65"/>
            </clipPath>
<clipPath id="terminal-2752597283-line-6">
    <rect x="0" y="147.9" width="1220" height="24.65"/>
            </clipPath>
<clipPath id="terminal-2752597283-line-7">
    <rect x="0" y="172.3" width="1220" height="24.65"/>
            </clipPath>
<clipPath id="terminal-2752597283-line-8">
    <rect x="0" y="196.7" width="1220" height="24.65"/>
            </clipPath>
<clipPath id="terminal-2752597283-line-9">
    <rect x="0" y="221.1" width="1220" height="24.65"/>
            </clipPath>
<clipPath id="terminal-2752597283-line-10">
    <rect x="0" y="245.5" width="1220" height="24.65"/>
            </clipPath>
<clipPath id="terminal-2752597283-line-11">
    <rect x="0" y="269.9" width="1220" height="24.65"/>
            </clipPath>
<clipPath id="terminal-2752597283-line-12">
    <rect x="0" y="294.3" width="1220" height="24.65"/>
            </clipPath>
<clipPath id="terminal-2752597283-line-13">
    <rect x="0" y="318.7" width="1220" height="24.65"/>
            </clipPath>
<clipPath id="terminal-2752597283-line-14">
    <rect x="0" y="343.1" width="1220" height="24.65"/>
            </clipPath>
<clipPath id="terminal-2752597283-line-15">
    <rect x="0" y="367.5" width="1220" height="24.65"/>
            </clipPath>
<clipPath id="terminal-2752597283-line-16">
    <rect x="0" y="391.9" width="1220" height="24.65"/>
            </clipPath>
<clipPath id="terminal-2752597283-line-17">
    <rect x="0" y="416.3" width="1220" height="24.65"/>
            </clipPath>
<clipPath id="terminal-2752597283-line-18">
    <rect x="0" y="440.7" width="1220" height="24.65"/>
            </clipPath>
<clipPath id="terminal-2752597283-line-19">
    <rect x="0" y="465.1" width="1220" height="24.65"/>
            </clipPath>
<clipPath id="terminal-2752597283-line-20">
    <rect x="0" y="489.5" width="1220" height="24.65"/>
            </clipPath>
<clipPath id="terminal-2752597283-line-21">
    <rect x="0" y="513.9" width="1220" height="24.65"/>
            </clipPath>
    </defs>

    <rect fill="#292929" stroke="rgba(255,255,255,0.35)" stroke-width="1" x="1" y="1" width="1236" height="609.2" rx="8"/><text class="terminal-2752597283-title" fill="#c5c8c6" text-anchor="middle" x="618" y="27">sync-models</text>
            <g transform="translate(26,22)">
            <circle cx="0" cy="0" r="7" fill="#ff5f57"/>
            <circle cx="22" cy="0" r="7" fill="#febc2e"/>
            <circle cx="44" cy="0" r="7" fill="#28c840"/>
            </g>
        
    <g transform="translate(9, 41)" clip-path="url(#terminal-2752597283-clip-terminal)">
    <rect fill="#242f38" x="0" y="1.5" width="12.2" height="24.65" shape-rendering="crispEdges"/><rect fill="#242f38" x="12.2" y="1.5" width="12.2" height="24.65" shape-rendering="crispEdges"/><rect fill="#242f38" x="24.4" y="1.5" width="61" height="24.65" shape-rendering="crispEdges"/><rect fill="#242f38" x="85.4" y="1.5" width="12.2" height="24.65" shape-rendering="crispEdges"/><rect fill="#242f38" x="97.6" y="1.5" width="427" height="24.65" shape-rendering="crispEdges"/><rect fill="#242f38" x="524.6" y="1.5" width="134.2" height="24.65" shape-rendering="crispEdges"/><rect fill="#242f38" x="658.8" y="1.5" width="439.2" height="24.65" shape-rendering="crispEdges"/><rect fill="#242f38" x="1098" y="1.5" width="12.2" height="24.65" shape-rendering="crispEdges"/><rect fill="#242f38" x="1110.2" y="1.5" width="0" height="24.65" shape-rendering="crispEdges"/><rect fill="#242f38" x="1110.2" y="1.5" width="97.6" height="24.65" shape-rendering="crispEdges"/><rect fill="#242f38" x="1207.8" y="1.5" width="12.2" height="24.65" shape-rendering="crispEdges"/><rect fill="#121212" x="0" y="25.9" width="12.2" height="24.65" shape-rendering="crispEdges"/><rect fill="#121212" x="12.2" y="25.9" width="1195.6" height="24.65" shape-rendering="crispEdges"/><rect fill="#121212" x="1207.8" y="25.9" width="12.2" height="24.65" shape-rendering="crispEdges"/><rect fill="#121212" x="0" y="50.3" width="12.2" height="24.65" shape-rendering="crispEdges"/><rect fill="#121212" x="12.2" y="50.3" width="24.4" height="24.65" shape-rendering="crispEdges"/><rect fill="#121212" x="36.6" y="50.3" width="109.8" height="24.65" shape-rendering="crispEdges"/><rect fill="#121212" x="146.4" y="50.3" width="1037" height="24.65" shape-rendering="crispEdges"/><rect fill="#121212" x="1183.4" y="50.3" width="24.4" height="24.65" shape-rendering="crispEdges"/><rect fill="#121212" x="1207.8" y="50.3" width="12.2" height="24.65" shape-rendering="crispEdges"/><rect fill="#121212" x="0" y="74.7" width="24.4" height="24.65" shape-rendering="crispEdges"/><rect fill="#121212" x="24.4" y="74.7" width="24.4" height="24.65" shape-rendering="crispEdges"/><rect fill="#121212" x="48.8" y="74.7" width="12.2" height="24.65" shape-rendering="crispEdges"/><rect fill="#121212" x="61" y="74.7" width="12.2" height="24.65" shape-rendering="crispEdges"/><rect fill="#121212" x="73.2" y="74.7" width="48.8" height="24.65" shape-rendering="crispEdges"/><rect fill="#121212" x="122" y="74.7" width="12.2" height="24.65" shape-rendering="crispEdges"/><rect fill="#121212" x="134.2" y="74.7" width="317.2" height="24.65" shape-rendering="crispEdges"/><rect fill="#121212" x="451.4" y="74.7" width="24.4" height="24.65" shape-rendering="crispEdges"/><rect fill="#121212" x="475.8" y="74.7" width="12.2" height="24.65" shape-rendering="crispEdges"/><rect fill="#121212" x="488" y="74.7" width="109.8" height="24.65" shape-rendering="crispEdges"/><rect fill="#121212" x="597.8" y="74.7" width="597.8" height="24.65" shape-rendering="crispEdges"/><rect fill="#121212" x="1195.6" y="74.7" width="24.4" height="24.65" shape-rendering="crispEdges"/><rect fill="#121212" x="0" y="99.1" width="24.4" height="24.65" shape-rendering="crispEdges"/><rect fill="#121212" x="24.4" y="99.1" width="24.4" height="24.65" shape-rendering="crispEdges"/><rect fill="#121212" x="48.8" y="99.1" width="12.2" height="24.65" shape-rendering="crispEdges"/><rect fill="#121212" x="61" y="99.1" width="12.2" height="24.65" shape-rendering="crispEdges"/><rect fill="#121212" x="73.2" y="99.1" width="73.2" height="24.65" shape-rendering="crispEdges"/><rect fill="#121212" x="146.4" y="99.1" width="12.2" height="24.65" shape-rendering="crispEdges"/><rect fill="#121212" x="158.6" y="99.1" width="329.4" height="24.65" shape-rendering="crispEdges"/><rect fill="#121212" x="488" y="99.1" width="24.4" height="24.65" shape-rendering="crispEdges"/><rect fill="#121212" x="512.4" y="99.1" width="12.2" height="24.65" shape-rendering="crispEdges"/><rect fill="#121212" x="524.6" y="99.1" width="122" height="24.65" shape-rendering="crispEdges"/><rect fill="#121212" x="646.6" y="99.1" width="549" height="24.65" shape-rendering="crispEdges"/><rect fill="#121212" x="1195.6" y="99.1" width="24.4" height="24.65" shape-rendering="crispEdges"/><rect fill="#121212" x="0" y="123.5" width="12.2" height="24.65" shape-rendering="crispEdges"/><rect fill="#272727" x="12.2" y="123.5" width="12.2" height="24.65" shape-rendering="crispEdges"/><rect fill="#272727" x="24.4" y="123.5" width="207.4" height="24.65" shape-rendering="crispEdges"/><rect fill="#272727" x="231.8" y="123.5" width="939.4" height="24.65" shape-rendering="crispEdges"/><rect fill="#000000" x="1171.2" y="123.5" width="24.4" height="24.65" shape-rendering="crispEdges"/><rect fill="#272727" x="1195.6" y="123.5" width="12.2" height="24.65" shape-rendering="crispEdges"/><rect fill="#121212" x="1207.8" y="123.5" width="12.2" height="24.65" shape-rendering="crispEdges"/><rect fill="#121212" x="0" y="147.9" width="12.2" height="24.65" shape-rendering="crispEdges"/><rect fill="#272727" x="12.2" y="147.9" width="12.2" height="24.65" shape-rendering="crispEdges"/><rect fill="#272727" x="24.4" y="147.9" width="1146.8" height="24.65" shape-rendering="crispEdges"/><rect fill="#000000" x="1171.2" y="147.9" width="24.4" height="24.65" shape-rendering="crispEdges"/><rect fill="#272727" x="1195.6" y="147.9" width="12.2" height="24.65" shape-rendering="crispEdges"/><rect fill="#121212" x="1207.8" y="147.9" width="12.2" height="24.65" shape-rendering="crispEdges"/><rect fill="#121212" x="0" y="172.3" width="12.2" height="24.65" shape-rendering="crispEdges"/><rect fill="#272727" x="12.2" y="172.3" width="12.2" height="24.65" shape-rendering="crispEdges"/><rect fill="#272727" x="24.4" y="172.3" width="24.4" height="24.65" shape-rendering="crispEdges"/><rect fill="#272727" x="48.8" y="172.3" width="48.8" height="24.65" shape-rendering="crispEdges"/><rect fill="#272727" x="97.6" y="172.3" width="1073.6" height="24.65" shape-rendering="crispEdges"/><rect fill="#000000" x="1171.2" y="172.3" width="24.4" height="24.65" shape-rendering="crispEdges"/><rect fill="#272727" x="1195.6" y="172.3" width="12.2" height="24.65" shape-rendering="crispEdges"/><rect fill="#121212" x="1207.8" y="172.3" width="12.2" height="24.65" shape-rendering="crispEdges"/><rect fill="#121212" x="0" y="196.7" width="12.2" height="24.65" shape-rendering="crispEdges"/><rect fill="#272727" x="12.2" y="196.7" width="12.2" height="24.65" shape-rendering="crispEdges"/><rect fill="#272727" x="24.4" y="196.7" width="48.8" height="24.65" shape-rendering="crispEdges"/><rect fill="#272727" x="73.2" y="196.7" width="134.2" height="24.65" shape-rendering="crispEdges"/><rect fill="#272727" x="207.4" y="196.7" width="12.2" height="24.65" shape-rendering="crispEdges"/><rect fill="#272727" x="219.6" y="196.7" width="414.8" height="24.65" shape-rendering="crispEdges"/><rect fill="#272727" x="634.4" y="196.7" width="536.8" height="24.65" shape-rendering="crispEdges"/><rect fill="#000000" x="1171.2" y="196.7" width="24.4" height="24.65" shape-rendering="crispEdges"/><rect fill="#272727" x="1195.6" y="196.7" width="12.2" height="24.65" shape-rendering="crispEdges"/><rect fill="#121212" x="1207.8" y="196.7" width="12.2" height="24.65" shape-rendering="crispEdges"/><rect fill="#121212" x="0" y="221.1" width="12.2" height="24.65" shape-rendering="crispEdges"/><rect fill="#272727" x="12.2" y="221.1" width="12.2" height="24.65" shape-rendering="crispEdges"/><rect fill="#272727" x="24.4" y="221.1" width="48.8" height="24.65" shape-rendering="crispEdges"/><rect fill="#272727" x="73.2" y="221.1" width="97.6" height="24.65" shape-rendering="crispEdges"/><rect fill="#272727" x="170.8" y="221.1" width="12.2" height="24.65" shape-rendering="crispEdges"/><rect fill="#272727" x="183" y="221.1" width="244" height="24.65" shape-rendering="crispEdges"/><rect fill="#272727" x="427" y="221.1" width="744.2" height="24.65" shape-rendering="crispEdges"/><rect fill="#000000" x="1171.2" y="221.1" width="24.4" height="24.65" shape-rendering="crispEdges"/><rect fill="#272727" x="1195.6" y="221.1" width="12.2" height="24.65" shape-rendering="crispEdges"/><rect fill="#121212" x="1207.8" y="221.1" width="12.2" height="24.65" shape-rendering="crispEdges"/><rect fill="#121212" x="0" y="245.5" width="12.2" height="24.65" shape-rendering="crispEdges"/><rect fill="#272727" x="12.2" y="245.5" width="12.2" height="24.65" shape-rendering="crispEdges"/><rect fill="#272727" x="24.4" y="245.5" width="48.8" height="24.65" shape-rendering="crispEdges"/><rect fill="#272727" x="73.2" y="245.5" width="207.4" height="24.65" shape-rendering="crispEdges"/><rect fill="#272727" x="280.6" y="245.5" width="890.6" height="24.65" shape-rendering="crispEdges"/><rect fill="#000000" x="1171.2" y="245.5" width="24.4" height="24.65" shape-rendering="crispEdges"/><rect fill="#272727" x="1195.6" y="245.5" width="12.2" height="24.65" shape-rendering="crispEdges"/><rect fill="#121212" x="1207.8" y="245.5" width="12.2" height="24.65" shape-rendering="crispEdges"/><rect fill="#121212" x="0" y="269.9" width="12.2" height="24.65" shape-rendering="crispEdges"/><rect fill="#272727" x="12.2" y="269.9" width="12.2" height="24.65" shape-rendering="crispEdges"/><rect fill="#272727" x="24.4" y="269.9" width="48.8" height="24.65" shape-rendering="crispEdges"/><rect fill="#272727" x="73.2" y="269.9" width="97.6" height="24.65" shape-rendering="crispEdges"/><rect fill="#272727" x="170.8" y="269.9" width="12.2" height="24.65" shape-rendering="crispEdges"/><rect fill="#272727" x="183" y="269.9" width="378.2" height="24.65" shape-rendering="crispEdges"/><rect fill="#272727" x="561.2" y="269.9" width="36.6" height="24.65" shape-rendering="crispEdges"/><rect fill="#272727" x="597.8" y="269.9" width="36.6" height="24.65" shape-rendering="crispEdges"/><rect fill="#272727" x="634.4" y="269.9" width="73.2" height="24.65" shape-rendering="crispEdges"/><rect fill="#272727" x="707.6" y="269.9" width="463.6" height="24.65" shape-rendering="crispEdges"/><rect fill="#000000" x="1171.2" y="269.9" width="24.4" height="24.65" shape-rendering="crispEdges"/><rect fill="#272727" x="1195.6" y="269.9" width="12.2" height="24.65" shape-rendering="crispEdges"/><rect fill="#121212" x="1207.8" y="269.9" width="12.2" height="24.65" shape-rendering="crispEdges"/><rect fill="#121212" x="0" y="294.3" width="12.2" height="24.65" shape-rendering="crispEdges"/><rect fill="#272727" x="12.2" y="294.3" width="12.2" height="24.65" shape-rendering="crispEdges"/><rect fill="#272727" x="24.4" y="294.3" width="1146.8" height="24.65" shape-rendering="crispEdges"/><rect fill="#000000" x="1171.2" y="294.3" width="24.4" height="24.65" shape-rendering="crispEdges"/><rect fill="#272727" x="1195.6" y="294.3" width="12.2" height="24.65" shape-rendering="crispEdges"/><rect fill="#121212" x="1207.8" y="294.3" width="12.2" height="24.65" shape-rendering="crispEdges"/><rect fill="#121212" x="0" y="318.7" width="12.2" height="24.65" shape-rendering="crispEdges"/><rect fill="#272727" x="12.2" y="318.7" width="12.2" height="24.65" shape-rendering="crispEdges"/><rect fill="#272727" x="24.4" y="318.7" width="24.4" height="24.65" shape-rendering="crispEdges"/><rect fill="#272727" x="48.8" y="318.7" width="73.2" height="24.65" shape-rendering="crispEdges"/><rect fill="#272727" x="122" y="318.7" width="1049.2" height="24.65" shape-rendering="crispEdges"/><rect fill="#000000" x="1171.2" y="318.7" width="24.4" height="24.65" shape-rendering="crispEdges"/><rect fill="#272727" x="1195.6" y="318.7" width="12.2" height="24.65" shape-rendering="crispEdges"/><rect fill="#121212" x="1207.8" y="318.7" width="12.2" height="24.65" shape-rendering="crispEdges"/><rect fill="#121212" x="0" y="343.1" width="12.2" height="24.65" shape-rendering="crispEdges"/><rect fill="#272727" x="12.2" y="343.1" width="12.2" height="24.65" shape-rendering="crispEdges"/><rect fill="#272727" x="24.4" y="343.1" width="48.8" height="24.65" shape-rendering="crispEdges"/><rect fill="#272727" x="73.2" y="343.1" width="73.2" height="24.65" shape-rendering="crispEdges"/><rect fill="#272727" x="146.4" y="343.1" width="73.2" height="24.65" shape-rendering="crispEdges"/><rect fill="#272727" x="219.6" y="343.1" width="951.6" height="24.65" shape-rendering="crispEdges"/><rect fill="#000000" x="1171.2" y="343.1" width="24.4" height="24.65" shape-rendering="crispEdges"/><rect fill="#272727" x="1195.6" y="343.1" width="12.2" height="24.65" shape-rendering="crispEdges"/><rect fill="#121212" x="1207.8" y="343.1" width="12.2" height="24.65" shape-rendering="crispEdges"/><rect fill="#121212" x="0" y="367.5" width="12.2" height="24.65" shape-rendering="crispEdges"/><rect fill="#272727" x="12.2" y="367.5" width="12.2" height="24.65" shape-rendering="crispEdges"/><rect fill="#272727" x="24.4" y="367.5" width="48.8" height="24.65" shape-rendering="crispEdges"/><rect fill="#272727" x="73.2" y="367.5" width="73.2" height="24.65" shape-rendering="crispEdges"/><rect fill="#272727" x="146.4" y="367.5" width="73.2" height="24.65" shape-rendering="crispEdges"/><rect fill="#272727" x="219.6" y="367.5" width="48.8" height="24.65" shape-rendering="crispEdges"/><rect fill="#272727" x="268.4" y="367.5" width="902.8" height="24.65" shape-rendering="crispEdges"/><rect fill="#000000" x="1171.2" y="367.5" width="24.4" height="24.65" shape-rendering="crispEdges"/><rect fill="#272727" x="1195.6" y="367.5" width="12.2" height="24.65" shape-rendering="crispEdges"/><rect fill="#121212" x="1207.8" y="367.5" width="12.2" height="24.65" shape-rendering="crispEdges"/><rect fill="#121212" x="0" y="391.9" width="12.2" height="24.65" shape-rendering="crispEdges"/><rect fill="#272727" x="12.2" y="391.9" width="12.2" height="24.65" shape-rendering="crispEdges"/><rect fill="#272727" x="24.4" y="391.9" width="48.8" height="24.65" shape-rendering="crispEdges"/><rect fill="#272727" x="73.2" y="391.9" width="207.4" height="24.65" shape-rendering="crispEdges"/><rect fill="#272727" x="280.6" y="391.9" width="890.6" height="24.65" shape-rendering="crispEdges"/><rect fill="#000000" x="1171.2" y="391.9" width="24.4" height="24.65" shape-rendering="crispEdges"/><rect fill="#272727" x="1195.6" y="391.9" width="12.2" height="24.65" shape-rendering="crispEdges"/><rect fill="#121212" x="1207.8" y="391.9" width="12.2" height="24.65" shape-rendering="crispEdges"/><rect fill="#121212" x="0" y="416.3" width="12.2" height="24.65" shape-rendering="crispEdges"/><rect fill="#272727" x="12.2" y="416.3" width="12.2" height="24.65" shape-rendering="crispEdges"/><rect fill="#272727" x="24.4" y="416.3" width="48.8" height="24.65" shape-rendering="crispEdges"/><rect fill="#272727" x="73.2" y="416.3" width="73.2" height="24.65" shape-rendering="crispEdges"/><rect fill="#272727" x="146.4" y="416.3" width="73.2" height="24.65" shape-rendering="crispEdges"/><rect fill="#272727" x="219.6" y="416.3" width="134.2" height="24.65" shape-rendering="crispEdges"/><rect fill="#272727" x="353.8" y="416.3" width="36.6" height="24.65" shape-rendering="crispEdges"/><rect fill="#272727" x="390.4" y="416.3" width="36.6" height="24.65" shape-rendering="crispEdges"/><rect fill="#272727" x="427" y="416.3" width="73.2" height="24.65" shape-rendering="crispEdges"/><rect fill="#272727" x="500.2" y="416.3" width="671" height="24.65" shape-rendering="crispEdges"/><rect fill="#000000" x="1171.2" y="416.3" width="24.4" height="24.65" shape-rendering="crispEdges"/><rect fill="#272727" x="1195.6" y="416.3" width="12.2" height="24.65" shape-rendering="crispEdges"/><rect fill="#121212" x="1207.8" y="416.3" width="12.2" height="24.65" shape-rendering="crispEdges"/><rect fill="#121212" x="0" y="440.7" width="12.2" height="24.65" shape-rendering="crispEdges"/><rect fill="#272727" x="12.2" y="440.7" width="12.2" height="24.65" shape-rendering="crispEdges"/><rect fill="#272727" x="24.4" y="440.7" width="1146.8" height="24.65" shape-rendering="crispEdges"/><rect fill="#000000" x="1171.2" y="440.7" width="24.4" height="24.65" shape-rendering="crispEdges"/><rect fill="#272727" x="1195.6" y="440.7" width="12.2" height="24.65" shape-rendering="crispEdges"/><rect fill="#121212" x="1207.8" y="440.7" width="12.2" height="24.65" shape-rendering="crispEdges"/><rect fill="#121212" x="0" y="465.1" width="12.2" height="24.65" shape-rendering="crispEdges"/><rect fill="#272727" x="12.2" y="465.1" width="12.2" height="24.65" shape-rendering="crispEdges"/><rect fill="#272727" x="24.4" y="465.1" width="12.2" height="24.65" shape-rendering="crispEdges"/><rect fill="#272727" x="36.6" y="465.1" width="353.8" height="24.65" shape-rendering="crispEdges"/><rect fill="#272727" x="390.4" y="465.1" width="12.2" height="24.65" shape-rendering="crispEdges"/><rect fill="#272727" x="402.6" y="465.1" width="768.6" height="24.65" shape-rendering="crispEdges"/><rect fill="#000000" x="1171.2" y="465.1" width="24.4" height="24.65" shape-rendering="crispEdges"/><rect fill="#272727" x="1195.6" y="465.1" width="12.2" height="24.65" shape-rendering="crispEdges"/><rect fill="#121212" x="1207.8" y="465.1" width="12.2" height="24.65" shape-rendering="crispEdges"/><rect fill="#121212" x="0" y="489.5" width="12.2" height="24.65" shape-rendering="crispEdges"/><rect fill="#272727" x="12.2" y="489.5" width="12.2" height="24.65" shape-rendering="crispEdges"/><rect fill="#272727" x="24.4" y="489.5" width="256.2" height="24.65" shape-rendering="crispEdges"/><rect fill="#272727" x="280.6" y="489.5" width="36.6" height="24.65" shape-rendering="crispEdges"/><rect fill="#272727" x="317.2" y="489.5" width="854" height="24.65" shape-rendering="crispEdges"/><rect fill="#000000" x="1171.2" y="489.5" width="24.4" height="24.65" shape-rendering="crispEdges"/><rect fill="#272727" x="1195.6" y="489.5" width="12.2" height="24.65" shape-rendering="crispEdges"/><rect fill="#121212" x="1207.8" y="489.5" width="12.2" height="24.65" shape-rendering="crispEdges"/><rect fill="#121212" x="0" y="513.9" width="1220" height="24.65" shape-rendering="crispEdges"/><rect fill="#242f38" x="0" y="538.3" width="1073.6" height="24.65" shape-rendering="crispEdges"/><rect fill="#242f38" x="1073.6" y="538.3" width="12.2" height="24.65" shape-rendering="crispEdges"/><rect fill="#242f38" x="1085.8" y="538.3" width="24.4" height="24.65" shape-rendering="crispEdges"/><rect fill="#242f38" x="1110.2" y="538.3" width="97.6" height="24.65" shape-rendering="crispEdges"/><rect fill="#242f38" x="1207.8" y="538.3" width="12.2" height="24.65" shape-rendering="crispEdges"/>
    <g class="terminal-2752597283-matrix">
    <text class="terminal-2752597283-r2" x="12.2" y="20" textLength="12.2" clip-path="url(#terminal-2752597283-line-0)">⭘</text><text class="terminal-2752597283-r2" x="524.6" y="20" textLength="134.2" clip-path="url(#terminal-2752597283-line-0)">sync-models</text><text class="terminal-2752597283-r1" x="1220" y="20" textLength="12.2" clip-path="url(#terminal-2752597283-line-0)">
</text><text class="terminal-2752597283-r1" x="1220" y="44.4" textLength="12.2" clip-path="url(#terminal-2752597283-line-1)">
</text><text class="terminal-2752597283-r3" x="36.6" y="68.8" textLength="109.8" clip-path="url(#terminal-2752597283-line-2)">Providers</text><text class="terminal-2752597283-r1" x="1220" y="68.8" textLength="12.2" clip-path="url(#terminal-2752597283-line-2)">
</text><text class="terminal-2752597283-r4" x="48.8" y="93.2" textLength="12.2" clip-path="url(#terminal-2752597283-line-3)">✓</text><text class="terminal-2752597283-r3" x="73.2" y="93.2" textLength="48.8" clip-path="url(#terminal-2752597283-line-3)">omlx</text><text class="terminal-2752597283-r5" x="134.2" y="93.2" textLength="317.2" clip-path="url(#terminal-2752597283-line-3)">(http://127.0.0.1:8067/v1)</text><text class="terminal-2752597283-r4" x="475.8" y="93.2" textLength="12.2" clip-path="url(#terminal-2752597283-line-3)">✓</text><text class="terminal-2752597283-r2" x="488" y="93.2" textLength="109.8" clip-path="url(#terminal-2752597283-line-3)">&#160;6&#160;models</text><text class="terminal-2752597283-r1" x="1220" y="93.2" textLength="12.2" clip-path="url(#terminal-2752597283-line-3)">
</text><text class="terminal-2752597283-r4" x="48.8" y="117.6" textLength="12.2" clip-path="url(#terminal-2752597283-line-4)">✓</text><text class="terminal-2752597283-r3" x="73.2" y="117.6" textLength="73.2" clip-path="url(#terminal-2752597283-line-4)">ollama</text><text class="terminal-2752597283-r5" x="158.6" y="117.6" textLength="329.4" clip-path="url(#terminal-2752597283-line-4)">(http://localhost:11434/v1)</text><text class="terminal-2752597283-r4" x="512.4" y="117.6" textLength="12.2" clip-path="url(#terminal-2752597283-line-4)">✓</text><text class="terminal-2752597283-r2" x="524.6" y="117.6" textLength="122" clip-path="url(#terminal-2752597283-line-4)">&#160;10&#160;models</text><text class="terminal-2752597283-r1" x="1220" y="117.6" textLength="12.2" clip-path="url(#terminal-2752597283-line-4)">
</text><text class="terminal-2752597283-r3" x="24.4" y="142" textLength="207.4" clip-path="url(#terminal-2752597283-line-5)">Proposed&#160;changes:</text><text class="terminal-2752597283-r1" x="1220" y="142" textLength="12.2" clip-path="url(#terminal-2752597283-line-5)">
</text><text class="terminal-2752597283-r1" x="1220" y="166.4" textLength="12.2" clip-path="url(#terminal-2752597283-line-6)">
</text><text class="terminal-2752597283-r6" x="48.8" y="190.8" textLength="48.8" clip-path="url(#terminal-2752597283-line-7)">omlx</text><text class="terminal-2752597283-r1" x="1220" y="190.8" textLength="12.2" clip-path="url(#terminal-2752597283-line-7)">
</text><text class="terminal-2752597283-r7" x="73.2" y="215.2" textLength="134.2" clip-path="url(#terminal-2752597283-line-8)">+&#160;Nemotron-</text><text class="terminal-2752597283-r6" x="207.4" y="215.2" textLength="12.2" clip-path="url(#terminal-2752597283-line-8)">3</text><text class="terminal-2752597283-r7" x="219.6" y="215.2" textLength="414.8" clip-path="url(#terminal-2752597283-line-8)">-Nano-Omni-30B-A3B-Reasoning-nvfp4</text><text class="terminal-2752597283-r1" x="1220" y="215.2" textLength="12.2" clip-path="url(#terminal-2752597283-line-8)">
</text><text class="terminal-2752597283-r7" x="73.2" y="239.6" textLength="97.6" clip-path="url(#terminal-2752597283-line-9)">+&#160;Qwen3.</text><text class="terminal-2752597283-r6" x="170.8" y="239.6" textLength="12.2" clip-path="url(#terminal-2752597283-line-9)">6</text><text class="terminal-2752597283-r7" x="183" y="239.6" textLength="244" clip-path="url(#terminal-2752597283-line-9)">-35B-A3B-UD-MLX-4bit</text><text class="terminal-2752597283-r1" x="1220" y="239.6" textLength="12.2" clip-path="url(#terminal-2752597283-line-9)">
</text><text class="terminal-2752597283-r8" x="73.2" y="264" textLength="207.4" clip-path="url(#terminal-2752597283-line-10)">-&#160;legacy-model-v1</text><text class="terminal-2752597283-r1" x="1220" y="264" textLength="12.2" clip-path="url(#terminal-2752597283-line-10)">
</text><text class="terminal-2752597283-r9" x="73.2" y="288.4" textLength="97.6" clip-path="url(#terminal-2752597283-line-11)">~&#160;gemma-</text><text class="terminal-2752597283-r6" x="170.8" y="288.4" textLength="12.2" clip-path="url(#terminal-2752597283-line-11)">4</text><text class="terminal-2752597283-r9" x="183" y="288.4" textLength="378.2" clip-path="url(#terminal-2752597283-line-11)">-26B-A4B-it-MLX-6bit&#160;&#160;context:&#160;</text><text class="terminal-2752597283-r6" x="561.2" y="288.4" textLength="36.6" clip-path="url(#terminal-2752597283-line-11)">999</text><text class="terminal-2752597283-r9" x="597.8" y="288.4" textLength="36.6" clip-path="url(#terminal-2752597283-line-11)">&#160;→&#160;</text><text class="terminal-2752597283-r6" x="634.4" y="288.4" textLength="73.2" clip-path="url(#terminal-2752597283-line-11)">130000</text><text class="terminal-2752597283-r1" x="1220" y="288.4" textLength="12.2" clip-path="url(#terminal-2752597283-line-11)">
</text><text class="terminal-2752597283-r1" x="1220" y="312.8" textLength="12.2" clip-path="url(#terminal-2752597283-line-12)">
</text><text class="terminal-2752597283-r6" x="48.8" y="337.2" textLength="73.2" clip-path="url(#terminal-2752597283-line-13)">ollama</text><text class="terminal-2752597283-r1" x="1220" y="337.2" textLength="12.2" clip-path="url(#terminal-2752597283-line-13)">
</text><text class="terminal-2752597283-r7" x="73.2" y="361.6" textLength="73.2" clip-path="url(#terminal-2752597283-line-14)">+&#160;gemm</text><text class="terminal-2752597283-r10" x="146.4" y="361.6" textLength="73.2" clip-path="url(#terminal-2752597283-line-14)">a4:26b</text><text class="terminal-2752597283-r1" x="1220" y="361.6" textLength="12.2" clip-path="url(#terminal-2752597283-line-14)">
</text><text class="terminal-2752597283-r7" x="73.2" y="386" textLength="73.2" clip-path="url(#terminal-2752597283-line-15)">+&#160;gemm</text><text class="terminal-2752597283-r10" x="146.4" y="386" textLength="73.2" clip-path="url(#terminal-2752597283-line-15)">a4:26b</text><text class="terminal-2752597283-r7" x="219.6" y="386" textLength="48.8" clip-path="url(#terminal-2752597283-line-15)">-mlx</text><text class="terminal-2752597283-r1" x="1220" y="386" textLength="12.2" clip-path="url(#terminal-2752597283-line-15)">
</text><text class="terminal-2752597283-r8" x="73.2" y="410.4" textLength="207.4" clip-path="url(#terminal-2752597283-line-16)">-&#160;legacy-model-v1</text><text class="terminal-2752597283-r1" x="1220" y="410.4" textLength="12.2" clip-path="url(#terminal-2752597283-line-16)">
</text><text class="terminal-2752597283-r9" x="73.2" y="434.8" textLength="73.2" clip-path="url(#terminal-2752597283-line-17)">~&#160;gemm</text><text class="terminal-2752597283-r10" x="146.4" y="434.8" textLength="73.2" clip-path="url(#terminal-2752597283-line-17)">a4:12b</text><text class="terminal-2752597283-r9" x="219.6" y="434.8" textLength="134.2" clip-path="url(#terminal-2752597283-line-17)">&#160;&#160;context:&#160;</text><text class="terminal-2752597283-r6" x="353.8" y="434.8" textLength="36.6" clip-path="url(#terminal-2752597283-line-17)">999</text><text class="terminal-2752597283-r9" x="390.4" y="434.8" textLength="36.6" clip-path="url(#terminal-2752597283-line-17)">&#160;→&#160;</text><text class="terminal-2752597283-r6" x="427" y="434.8" textLength="73.2" clip-path="url(#terminal-2752597283-line-17)">131072</text><text class="terminal-2752597283-r1" x="1220" y="434.8" textLength="12.2" clip-path="url(#terminal-2752597283-line-17)">
</text><text class="terminal-2752597283-r1" x="1220" y="459.2" textLength="12.2" clip-path="url(#terminal-2752597283-line-18)">
</text><text class="terminal-2752597283-r11" x="24.4" y="483.6" textLength="12.2" clip-path="url(#terminal-2752597283-line-19)">(</text><text class="terminal-2752597283-r12" x="36.6" y="483.6" textLength="353.8" clip-path="url(#terminal-2752597283-line-19)">dry-run&#160;—&#160;config&#160;not&#160;modified</text><text class="terminal-2752597283-r11" x="390.4" y="483.6" textLength="12.2" clip-path="url(#terminal-2752597283-line-19)">)</text><text class="terminal-2752597283-r1" x="1220" y="483.6" textLength="12.2" clip-path="url(#terminal-2752597283-line-19)">
</text><text class="terminal-2752597283-r12" x="24.4" y="508" textLength="256.2" clip-path="url(#terminal-2752597283-line-20)">Press&#160;any&#160;key&#160;to&#160;exit</text><text class="terminal-2752597283-r13" x="280.6" y="508" textLength="36.6" clip-path="url(#terminal-2752597283-line-20)">...</text><text class="terminal-2752597283-r1" x="1220" y="508" textLength="12.2" clip-path="url(#terminal-2752597283-line-20)">
</text><text class="terminal-2752597283-r1" x="1220" y="532.4" textLength="12.2" clip-path="url(#terminal-2752597283-line-21)">
</text><text class="terminal-2752597283-r14" x="1073.6" y="556.8" textLength="12.2" clip-path="url(#terminal-2752597283-line-22)">▏</text><text class="terminal-2752597283-r15" x="1085.8" y="556.8" textLength="24.4" clip-path="url(#terminal-2752597283-line-22)">^p</text><text class="terminal-2752597283-r2" x="1110.2" y="556.8" textLength="97.6" clip-path="url(#terminal-2752597283-line-22)">&#160;palette</text>
    </g>
    </g>
</svg>
